<mxfile host="www.draw.io" modified="2019-11-05T07:48:37.797Z" agent="Mozilla/5.0 (Windows NT 10.0; Win64; x64) AppleWebKit/537.36 (KHTML, like Gecko) Chrome/78.0.3904.70 Safari/537.36" etag="aoZ97b0EH07MFf0hobhB" version="12.2.0" type="github" pages="1">
  <diagram id="L4YuuxNMckqVgBmBOuBi" name="第 1 页">
    <mxGraphModel dx="1422" dy="713" grid="1" gridSize="10" guides="1" tooltips="1" connect="1" arrows="1" fold="1" page="1" pageScale="1" pageWidth="827" pageHeight="1169" math="0" shadow="0">
      <root>
        <mxCell id="0"/>
        <mxCell id="1" parent="0"/>
        <mxCell id="UaDZ8-WLzHAVfhm2IvJI-3" style="edgeStyle=orthogonalEdgeStyle;rounded=0;orthogonalLoop=1;jettySize=auto;html=1;entryX=0.5;entryY=0;entryDx=0;entryDy=0;" edge="1" parent="1" source="UaDZ8-WLzHAVfhm2IvJI-1" target="UaDZ8-WLzHAVfhm2IvJI-2">
          <mxGeometry relative="1" as="geometry"/>
        </mxCell>
        <mxCell id="UaDZ8-WLzHAVfhm2IvJI-1" value="InterProcessSemaphoreV2&lt;span&gt;.acquire();&lt;/span&gt;" style="rounded=1;whiteSpace=wrap;html=1;align=center;" vertex="1" parent="1">
          <mxGeometry x="230" y="60" width="220" height="40" as="geometry"/>
        </mxCell>
        <mxCell id="UaDZ8-WLzHAVfhm2IvJI-6" style="edgeStyle=orthogonalEdgeStyle;rounded=0;orthogonalLoop=1;jettySize=auto;html=1;entryX=0;entryY=0.5;entryDx=0;entryDy=0;" edge="1" parent="1" source="UaDZ8-WLzHAVfhm2IvJI-2" target="UaDZ8-WLzHAVfhm2IvJI-5">
          <mxGeometry relative="1" as="geometry"/>
        </mxCell>
        <mxCell id="UaDZ8-WLzHAVfhm2IvJI-8" style="edgeStyle=orthogonalEdgeStyle;rounded=0;orthogonalLoop=1;jettySize=auto;html=1;entryX=0.5;entryY=0;entryDx=0;entryDy=0;" edge="1" parent="1" source="UaDZ8-WLzHAVfhm2IvJI-2" target="UaDZ8-WLzHAVfhm2IvJI-7">
          <mxGeometry relative="1" as="geometry"/>
        </mxCell>
        <mxCell id="UaDZ8-WLzHAVfhm2IvJI-2" value="InterProcessMutex.acquire()" style="rounded=1;whiteSpace=wrap;html=1;align=center;" vertex="1" parent="1">
          <mxGeometry x="255" y="240" width="170" height="60" as="geometry"/>
        </mxCell>
        <mxCell id="UaDZ8-WLzHAVfhm2IvJI-4" value="1. Semaphore底层调用的还是InterProcessMutex加锁。&lt;br&gt;2. 不管你初始化Semaphore时指定的maxLeases是多小，有任意多个线程来争抢锁，这这一步还是会在对应的ZK node节点下创建路径的" style="text;html=1;strokeColor=none;fillColor=none;align=left;verticalAlign=middle;whiteSpace=wrap;rounded=0;" vertex="1" parent="1">
          <mxGeometry x="340" y="130" width="300" height="80" as="geometry"/>
        </mxCell>
        <mxCell id="UaDZ8-WLzHAVfhm2IvJI-5" value="对应zk路径下locks/...." style="rounded=1;whiteSpace=wrap;html=1;align=center;" vertex="1" parent="1">
          <mxGeometry x="530" y="240" width="120" height="60" as="geometry"/>
        </mxCell>
        <mxCell id="UaDZ8-WLzHAVfhm2IvJI-10" style="edgeStyle=orthogonalEdgeStyle;rounded=0;orthogonalLoop=1;jettySize=auto;html=1;entryX=0.5;entryY=0;entryDx=0;entryDy=0;" edge="1" parent="1" source="UaDZ8-WLzHAVfhm2IvJI-7" target="UaDZ8-WLzHAVfhm2IvJI-9">
          <mxGeometry relative="1" as="geometry"/>
        </mxCell>
        <mxCell id="UaDZ8-WLzHAVfhm2IvJI-18" style="edgeStyle=orthogonalEdgeStyle;rounded=0;orthogonalLoop=1;jettySize=auto;html=1;" edge="1" parent="1" source="UaDZ8-WLzHAVfhm2IvJI-7" target="UaDZ8-WLzHAVfhm2IvJI-17">
          <mxGeometry relative="1" as="geometry"/>
        </mxCell>
        <mxCell id="UaDZ8-WLzHAVfhm2IvJI-7" value="在同级目录下创建leases目录" style="rounded=1;whiteSpace=wrap;html=1;align=center;" vertex="1" parent="1">
          <mxGeometry x="280" y="360" width="120" height="60" as="geometry"/>
        </mxCell>
        <mxCell id="UaDZ8-WLzHAVfhm2IvJI-13" style="edgeStyle=orthogonalEdgeStyle;rounded=0;orthogonalLoop=1;jettySize=auto;html=1;entryX=0.5;entryY=0;entryDx=0;entryDy=0;" edge="1" parent="1" source="UaDZ8-WLzHAVfhm2IvJI-9" target="UaDZ8-WLzHAVfhm2IvJI-12">
          <mxGeometry relative="1" as="geometry"/>
        </mxCell>
        <mxCell id="UaDZ8-WLzHAVfhm2IvJI-9" value="children.size() &amp;lt;= maxLeases" style="rounded=1;whiteSpace=wrap;html=1;align=center;" vertex="1" parent="1">
          <mxGeometry x="240" y="470" width="200" height="40" as="geometry"/>
        </mxCell>
        <mxCell id="UaDZ8-WLzHAVfhm2IvJI-11" value="每次acquire申请锁后，比较leases目录下的children是否不大于maxLeases" style="text;html=1;strokeColor=none;fillColor=none;align=center;verticalAlign=middle;whiteSpace=wrap;rounded=0;" vertex="1" parent="1">
          <mxGeometry x="360" y="440" width="210" height="20" as="geometry"/>
        </mxCell>
        <mxCell id="UaDZ8-WLzHAVfhm2IvJI-15" style="edgeStyle=orthogonalEdgeStyle;rounded=0;orthogonalLoop=1;jettySize=auto;html=1;entryX=0;entryY=0.5;entryDx=0;entryDy=0;" edge="1" parent="1" source="UaDZ8-WLzHAVfhm2IvJI-12" target="UaDZ8-WLzHAVfhm2IvJI-14">
          <mxGeometry relative="1" as="geometry"/>
        </mxCell>
        <mxCell id="UaDZ8-WLzHAVfhm2IvJI-16" value="是" style="text;html=1;resizable=0;points=[];align=center;verticalAlign=middle;labelBackgroundColor=#ffffff;" vertex="1" connectable="0" parent="UaDZ8-WLzHAVfhm2IvJI-15">
          <mxGeometry x="-0.3385" relative="1" as="geometry">
            <mxPoint as="offset"/>
          </mxGeometry>
        </mxCell>
        <mxCell id="UaDZ8-WLzHAVfhm2IvJI-12" value="如果超过了初始化指定的maxLeases" style="rhombus;whiteSpace=wrap;html=1;align=center;" vertex="1" parent="1">
          <mxGeometry x="300" y="560" width="80" height="80" as="geometry"/>
        </mxCell>
        <mxCell id="UaDZ8-WLzHAVfhm2IvJI-14" value="wait();等待" style="rounded=1;whiteSpace=wrap;html=1;align=center;" vertex="1" parent="1">
          <mxGeometry x="510" y="570" width="120" height="60" as="geometry"/>
        </mxCell>
        <mxCell id="UaDZ8-WLzHAVfhm2IvJI-17" value="同时在该node添加watch，用于notifyAll()" style="rounded=1;whiteSpace=wrap;html=1;align=center;" vertex="1" parent="1">
          <mxGeometry x="500" y="360" width="200" height="60" as="geometry"/>
        </mxCell>
      </root>
    </mxGraphModel>
  </diagram>
</mxfile>
